<svg width="418" height="292" viewBox="0 0 418 292" fill="none" xmlns="http://www.w3.org/2000/svg">
<rect y="212" width="418" height="80" rx="22" fill="#363636"/>
<path d="M70.9983 248V240.007H69.495V237H72.575V238.797H73.3817C73.7728 238.161 74.28 237.672 74.9033 237.33C75.5267 236.976 76.2967 236.798 77.2133 236.798C78.0933 236.798 78.845 236.957 79.4683 237.275C80.1039 237.581 80.6111 238.039 80.99 238.65H81.0633C81.9067 237.416 83.1594 236.798 84.8217 236.798C86.2394 236.798 87.3639 237.214 88.195 238.045C89.0261 238.864 89.4417 239.976 89.4417 241.382V248H86.3983V241.968C86.3983 240.331 85.6222 239.512 84.07 239.512C82.5178 239.512 81.7417 240.331 81.7417 241.968V248H78.6983V241.968C78.6983 240.331 77.91 239.512 76.3333 239.512C75.5756 239.512 75.0011 239.713 74.61 240.117C74.2311 240.52 74.0417 241.137 74.0417 241.968V248H70.9983ZM97.097 248.22C95.8992 248.22 94.8542 247.988 93.962 247.523C93.082 247.047 92.3975 246.381 91.9086 245.525C91.4198 244.669 91.1753 243.655 91.1753 242.482C91.1753 241.321 91.4136 240.312 91.8903 239.457C92.3792 238.601 93.0698 237.941 93.962 237.477C94.8542 237.012 95.9053 236.78 97.1153 236.78C98.3131 236.78 99.352 237.012 100.232 237.477C101.112 237.941 101.79 238.601 102.267 239.457C102.744 240.312 102.982 241.327 102.982 242.5C102.982 243.661 102.744 244.676 102.267 245.543C101.79 246.399 101.106 247.059 100.214 247.523C99.3336 247.988 98.2948 248.22 97.097 248.22ZM97.097 245.58C98.0136 245.58 98.7164 245.305 99.2053 244.755C99.6942 244.193 99.9386 243.435 99.9386 242.482C99.9386 241.528 99.6942 240.783 99.2053 240.245C98.7164 239.695 98.0136 239.42 97.097 239.42C96.1681 239.42 95.4531 239.695 94.952 240.245C94.4631 240.783 94.2186 241.528 94.2186 242.482C94.2186 243.435 94.4631 244.193 94.952 244.755C95.4531 245.305 96.1681 245.58 97.097 245.58ZM110.117 248.22C108.919 248.22 107.874 247.988 106.982 247.523C106.102 247.047 105.417 246.381 104.928 245.525C104.439 244.669 104.195 243.655 104.195 242.482C104.195 241.321 104.433 240.312 104.91 239.457C105.399 238.601 106.089 237.941 106.982 237.477C107.874 237.012 108.925 236.78 110.135 236.78C111.333 236.78 112.372 237.012 113.252 237.477C114.132 237.941 114.81 238.601 115.287 239.457C115.763 240.312 116.002 241.327 116.002 242.5C116.002 243.661 115.763 244.676 115.287 245.543C114.81 246.399 114.125 247.059 113.233 247.523C112.353 247.988 111.314 248.22 110.117 248.22ZM110.117 245.58C111.033 245.58 111.736 245.305 112.225 244.755C112.714 244.193 112.958 243.435 112.958 242.482C112.958 241.528 112.714 240.783 112.225 240.245C111.736 239.695 111.033 239.42 110.117 239.42C109.188 239.42 108.473 239.695 107.972 240.245C107.483 240.783 107.238 241.528 107.238 242.482C107.238 243.435 107.483 244.193 107.972 244.755C108.473 245.305 109.188 245.58 110.117 245.58ZM122.476 248.22C121.352 248.22 120.392 247.982 119.598 247.505C118.815 247.028 118.223 246.362 117.819 245.507C117.416 244.639 117.214 243.637 117.214 242.5C117.214 241.351 117.41 240.349 117.801 239.493C118.192 238.626 118.76 237.959 119.506 237.495C120.264 237.018 121.168 236.78 122.219 236.78C123.026 236.78 123.717 236.933 124.291 237.238C124.878 237.532 125.33 237.953 125.648 238.503H125.721V232.6H128.764V244.993H130.268V248H127.188V246.203H126.418C126.027 246.839 125.501 247.334 124.841 247.688C124.193 248.043 123.405 248.22 122.476 248.22ZM123.044 245.58C123.863 245.58 124.511 245.354 124.988 244.902C125.477 244.437 125.721 243.802 125.721 242.995V242.005C125.721 241.198 125.477 240.569 124.988 240.117C124.511 239.652 123.863 239.42 123.044 239.42C122.115 239.42 121.419 239.695 120.954 240.245C120.49 240.795 120.258 241.547 120.258 242.5C120.258 243.453 120.49 244.205 120.954 244.755C121.419 245.305 122.115 245.58 123.044 245.58ZM138.13 248V240.007H136.627V237H139.707V239.163H140.477C140.77 238.393 141.235 237.819 141.87 237.44C142.506 237.061 143.221 236.872 144.015 236.872H144.95V239.512H143.887C142.933 239.512 142.231 239.781 141.778 240.318C141.338 240.856 141.118 241.565 141.118 242.445V248H138.13ZM151.293 248.22C150.108 248.22 149.075 247.988 148.195 247.523C147.315 247.047 146.637 246.381 146.16 245.525C145.683 244.657 145.445 243.637 145.445 242.463C145.445 241.29 145.677 240.282 146.142 239.438C146.606 238.583 147.266 237.929 148.122 237.477C148.989 237.012 150.01 236.78 151.183 236.78C152.332 236.78 153.316 237 154.135 237.44C154.966 237.88 155.602 238.509 156.042 239.328C156.482 240.147 156.702 241.125 156.702 242.262V243.288H148.36C148.482 244.107 148.794 244.731 149.295 245.158C149.796 245.586 150.456 245.8 151.275 245.8C151.923 245.8 152.436 245.69 152.815 245.47C153.194 245.25 153.463 244.914 153.622 244.462H156.665C156.42 245.635 155.828 246.558 154.887 247.23C153.945 247.89 152.748 248.22 151.293 248.22ZM148.433 241.272H153.787C153.689 240.575 153.42 240.056 152.98 239.713C152.54 239.359 151.947 239.182 151.202 239.182C150.456 239.182 149.845 239.359 149.368 239.713C148.904 240.068 148.592 240.587 148.433 241.272ZM159.299 248V240.007H157.796V237H160.876V238.797H161.682C162.074 238.161 162.581 237.672 163.204 237.33C163.827 236.976 164.597 236.798 165.514 236.798C166.394 236.798 167.146 236.957 167.769 237.275C168.405 237.581 168.912 238.039 169.291 238.65H169.364C170.207 237.416 171.46 236.798 173.122 236.798C174.54 236.798 175.665 237.214 176.496 238.045C177.327 238.864 177.742 239.976 177.742 241.382V248H174.699V241.968C174.699 240.331 173.923 239.512 172.371 239.512C170.819 239.512 170.042 240.331 170.042 241.968V248H166.999V241.968C166.999 240.331 166.211 239.512 164.634 239.512C163.876 239.512 163.302 239.713 162.911 240.117C162.532 240.52 162.342 241.137 162.342 241.968V248H159.299ZM180.136 248V237H183.179V248H180.136ZM181.658 235.918C181.193 235.918 180.796 235.759 180.466 235.442C180.148 235.112 179.989 234.714 179.989 234.25C179.989 233.786 180.148 233.394 180.466 233.077C180.796 232.747 181.193 232.582 181.658 232.582C182.122 232.582 182.513 232.747 182.831 233.077C183.161 233.394 183.326 233.786 183.326 234.25C183.326 234.714 183.161 235.112 182.831 235.442C182.513 235.759 182.122 235.918 181.658 235.918ZM186.434 248V240.007H184.931V237H188.011V238.797H188.781C189.208 238.161 189.746 237.672 190.394 237.33C191.042 236.976 191.848 236.798 192.814 236.798C194.342 236.798 195.521 237.22 196.352 238.063C197.196 238.894 197.617 240.013 197.617 241.418V248H194.574V241.987C194.574 241.18 194.354 240.569 193.914 240.153C193.486 239.726 192.857 239.512 192.026 239.512C191.194 239.512 190.559 239.726 190.119 240.153C189.691 240.569 189.477 241.18 189.477 241.987V248H186.434ZM204.611 248.22C203.486 248.22 202.527 247.982 201.732 247.505C200.95 247.028 200.357 246.362 199.954 245.507C199.551 244.639 199.349 243.637 199.349 242.5C199.349 241.351 199.545 240.349 199.936 239.493C200.327 238.626 200.895 237.959 201.641 237.495C202.399 237.018 203.303 236.78 204.354 236.78C205.161 236.78 205.851 236.933 206.426 237.238C207.012 237.532 207.465 237.953 207.782 238.503H207.856V232.6H210.899V244.993H212.402V248H209.322V246.203H208.552C208.161 246.839 207.636 247.334 206.976 247.688C206.328 248.043 205.54 248.22 204.611 248.22ZM205.179 245.58C205.998 245.58 206.646 245.354 207.122 244.902C207.611 244.437 207.856 243.802 207.856 242.995V242.005C207.856 241.198 207.611 240.569 207.122 240.117C206.646 239.652 205.998 239.42 205.179 239.42C204.25 239.42 203.554 239.695 203.089 240.245C202.625 240.795 202.392 241.547 202.392 242.5C202.392 243.453 202.625 244.205 203.089 244.755C203.554 245.305 204.25 245.58 205.179 245.58ZM219.356 248.22C218.17 248.22 217.137 247.988 216.257 247.523C215.377 247.047 214.699 246.381 214.222 245.525C213.746 244.657 213.507 243.637 213.507 242.463C213.507 241.29 213.74 240.282 214.204 239.438C214.668 238.583 215.328 237.929 216.184 237.477C217.052 237.012 218.072 236.78 219.246 236.78C220.395 236.78 221.378 237 222.197 237.44C223.028 237.88 223.664 238.509 224.104 239.328C224.544 240.147 224.764 241.125 224.764 242.262V243.288H216.422C216.545 244.107 216.856 244.731 217.357 245.158C217.858 245.586 218.518 245.8 219.337 245.8C219.985 245.8 220.498 245.69 220.877 245.47C221.256 245.25 221.525 244.914 221.684 244.462H224.727C224.483 245.635 223.89 246.558 222.949 247.23C222.008 247.89 220.81 248.22 219.356 248.22ZM216.496 241.272H221.849C221.751 240.575 221.482 240.056 221.042 239.713C220.602 239.359 220.01 239.182 219.264 239.182C218.518 239.182 217.907 239.359 217.431 239.713C216.966 240.068 216.655 240.587 216.496 241.272ZM227.527 248V240.007H226.023V237H229.103V239.163H229.873C230.167 238.393 230.631 237.819 231.267 237.44C231.902 237.061 232.617 236.872 233.412 236.872H234.347V239.512H233.283C232.33 239.512 231.627 239.781 231.175 240.318C230.735 240.856 230.515 241.565 230.515 242.445V248H227.527Z" fill="white"/>
<path d="M70.5733 272V266.187H69.48V264H71.72V265.573H72.28C72.4933 265.013 72.8311 264.596 73.2933 264.32C73.7556 264.044 74.2756 263.907 74.8533 263.907H75.5333V265.827H74.76C74.0667 265.827 73.5556 266.022 73.2267 266.413C72.9067 266.804 72.7467 267.32 72.7467 267.96V272H70.5733ZM80.1465 272.16C79.2842 272.16 78.5331 271.991 77.8931 271.653C77.2531 271.307 76.7598 270.822 76.4131 270.2C76.0665 269.569 75.8931 268.827 75.8931 267.973C75.8931 267.12 76.062 266.387 76.3998 265.773C76.7376 265.151 77.2176 264.676 77.8398 264.347C78.4709 264.009 79.2131 263.84 80.0665 263.84C80.902 263.84 81.6176 264 82.2131 264.32C82.8176 264.64 83.2798 265.098 83.5998 265.693C83.9198 266.289 84.0798 267 84.0798 267.827V268.573H78.0131C78.102 269.169 78.3287 269.622 78.6931 269.933C79.0576 270.244 79.5376 270.4 80.1331 270.4C80.6042 270.4 80.9776 270.32 81.2531 270.16C81.5287 270 81.7242 269.756 81.8398 269.427H84.0531C83.8753 270.28 83.4442 270.951 82.7598 271.44C82.0753 271.92 81.2042 272.16 80.1465 272.16ZM78.0665 267.107H81.9598C81.8887 266.6 81.6931 266.222 81.3731 265.973C81.0531 265.716 80.622 265.587 80.0798 265.587C79.5376 265.587 79.0931 265.716 78.7465 265.973C78.4087 266.231 78.182 266.609 78.0665 267.107ZM85.969 272V266.187H84.8756V264H87.1156V265.307H87.7023C87.9867 264.844 88.3556 264.489 88.809 264.24C89.2623 263.982 89.8223 263.853 90.489 263.853C91.129 263.853 91.6756 263.969 92.129 264.2C92.5912 264.422 92.9601 264.756 93.2356 265.2H93.289C93.9023 264.302 94.8134 263.853 96.0223 263.853C97.0534 263.853 97.8712 264.156 98.4756 264.76C99.0801 265.356 99.3823 266.164 99.3823 267.187V272H97.169V267.613C97.169 266.422 96.6045 265.827 95.4756 265.827C94.3467 265.827 93.7823 266.422 93.7823 267.613V272H91.569V267.613C91.569 266.422 90.9956 265.827 89.849 265.827C89.2978 265.827 88.8801 265.973 88.5956 266.267C88.3201 266.56 88.1823 267.009 88.1823 267.613V272H85.969ZM104.896 272.16C104.034 272.16 103.283 271.991 102.643 271.653C102.003 271.307 101.51 270.822 101.163 270.2C100.816 269.569 100.643 268.827 100.643 267.973C100.643 267.12 100.812 266.387 101.15 265.773C101.488 265.151 101.968 264.676 102.59 264.347C103.221 264.009 103.963 263.84 104.816 263.84C105.652 263.84 106.368 264 106.963 264.32C107.568 264.64 108.03 265.098 108.35 265.693C108.67 266.289 108.83 267 108.83 267.827V268.573H102.763C102.852 269.169 103.079 269.622 103.443 269.933C103.808 270.244 104.288 270.4 104.883 270.4C105.354 270.4 105.728 270.32 106.003 270.16C106.279 270 106.474 269.756 106.59 269.427H108.803C108.625 270.28 108.194 270.951 107.51 271.44C106.825 271.92 105.954 272.16 104.896 272.16ZM102.816 267.107H106.71C106.639 266.6 106.443 266.222 106.123 265.973C105.803 265.716 105.372 265.587 104.83 265.587C104.288 265.587 103.843 265.716 103.496 265.973C103.159 266.231 102.932 266.609 102.816 267.107ZM110.719 272V266.187H109.626V264H111.866V265.307H112.452C112.737 264.844 113.106 264.489 113.559 264.24C114.012 263.982 114.572 263.853 115.239 263.853C115.879 263.853 116.426 263.969 116.879 264.2C117.341 264.422 117.71 264.756 117.986 265.2H118.039C118.652 264.302 119.563 263.853 120.772 263.853C121.803 263.853 122.621 264.156 123.226 264.76C123.83 265.356 124.132 266.164 124.132 267.187V272H121.919V267.613C121.919 266.422 121.355 265.827 120.226 265.827C119.097 265.827 118.532 266.422 118.532 267.613V272H116.319V267.613C116.319 266.422 115.746 265.827 114.599 265.827C114.048 265.827 113.63 265.973 113.346 266.267C113.07 266.56 112.932 267.009 112.932 267.613V272H110.719ZM130.98 272.16C130.304 272.16 129.726 272.031 129.246 271.773C128.775 271.516 128.398 271.156 128.113 270.693H127.553V272H125.313V269.813H126.406V260.8H128.62V265.093H128.673C128.913 264.693 129.242 264.387 129.66 264.173C130.078 263.951 130.58 263.84 131.166 263.84C131.94 263.84 132.598 264.013 133.14 264.36C133.682 264.698 134.095 265.182 134.38 265.813C134.664 266.436 134.806 267.164 134.806 268C134.806 268.827 134.66 269.556 134.366 270.187C134.073 270.809 133.642 271.293 133.073 271.64C132.504 271.987 131.806 272.16 130.98 272.16ZM130.566 270.24C131.242 270.24 131.749 270.04 132.086 269.64C132.424 269.24 132.593 268.693 132.593 268C132.593 267.307 132.424 266.76 132.086 266.36C131.749 265.96 131.242 265.76 130.566 265.76C129.971 265.76 129.495 265.929 129.14 266.267C128.793 266.596 128.62 267.053 128.62 267.64V268.36C128.62 268.947 128.793 269.409 129.14 269.747C129.495 270.076 129.971 270.24 130.566 270.24ZM139.943 272.16C139.081 272.16 138.33 271.991 137.69 271.653C137.05 271.307 136.557 270.822 136.21 270.2C135.863 269.569 135.69 268.827 135.69 267.973C135.69 267.12 135.859 266.387 136.197 265.773C136.534 265.151 137.014 264.676 137.637 264.347C138.268 264.009 139.01 263.84 139.863 263.84C140.699 263.84 141.414 264 142.01 264.32C142.614 264.64 143.077 265.098 143.397 265.693C143.717 266.289 143.877 267 143.877 267.827V268.573H137.81C137.899 269.169 138.126 269.622 138.49 269.933C138.854 270.244 139.334 270.4 139.93 270.4C140.401 270.4 140.774 270.32 141.05 270.16C141.326 270 141.521 269.756 141.637 269.427H143.85C143.672 270.28 143.241 270.951 142.557 271.44C141.872 271.92 141.001 272.16 139.943 272.16ZM137.863 267.107H141.757C141.686 266.6 141.49 266.222 141.17 265.973C140.85 265.716 140.419 265.587 139.877 265.587C139.334 265.587 138.89 265.716 138.543 265.973C138.206 266.231 137.979 266.609 137.863 267.107ZM145.886 272V266.187H144.793V264H147.033V265.573H147.592C147.806 265.013 148.144 264.596 148.606 264.32C149.068 264.044 149.588 263.907 150.166 263.907H150.846V265.827H150.073C149.379 265.827 148.868 266.022 148.539 266.413C148.219 266.804 148.059 267.32 148.059 267.96V272H145.886ZM158.366 272C157.798 272 157.353 271.858 157.033 271.573C156.722 271.28 156.566 270.836 156.566 270.24V265.733H155.193V264H156.593V261.6H158.753V264H160.606V265.733H158.78V270.267H160.793V272H158.366ZM165.856 272.16C164.985 272.16 164.225 271.991 163.576 271.653C162.936 271.307 162.438 270.822 162.083 270.2C161.727 269.578 161.549 268.84 161.549 267.987C161.549 267.142 161.723 266.409 162.069 265.787C162.425 265.164 162.927 264.684 163.576 264.347C164.225 264.009 164.989 263.84 165.869 263.84C166.74 263.84 167.496 264.009 168.136 264.347C168.776 264.684 169.269 265.164 169.616 265.787C169.963 266.409 170.136 267.147 170.136 268C170.136 268.844 169.963 269.582 169.616 270.213C169.269 270.836 168.772 271.316 168.123 271.653C167.483 271.991 166.727 272.16 165.856 272.16ZM165.856 270.24C166.523 270.24 167.034 270.04 167.389 269.64C167.745 269.231 167.923 268.68 167.923 267.987C167.923 267.293 167.745 266.751 167.389 266.36C167.034 265.96 166.523 265.76 165.856 265.76C165.18 265.76 164.66 265.96 164.296 266.36C163.94 266.751 163.763 267.293 163.763 267.987C163.763 268.68 163.94 269.231 164.296 269.64C164.66 270.04 165.18 270.24 165.856 270.24ZM177.826 272.147C176.884 272.147 176.146 271.92 175.613 271.467C175.079 271.004 174.813 270.4 174.813 269.653C174.813 268.862 175.088 268.253 175.639 267.827C176.19 267.4 176.982 267.187 178.013 267.187H180.306V266.88C180.306 266.018 179.79 265.587 178.759 265.587C177.862 265.587 177.319 265.898 177.133 266.52H174.933C175.11 265.64 175.524 264.973 176.173 264.52C176.822 264.067 177.684 263.84 178.759 263.84C179.95 263.84 180.857 264.107 181.479 264.64C182.11 265.173 182.426 265.951 182.426 266.973V269.813H183.466V272H181.226V270.693H180.666C180.39 271.156 180.022 271.516 179.559 271.773C179.097 272.022 178.519 272.147 177.826 272.147ZM178.159 270.467C178.577 270.467 178.946 270.391 179.266 270.24C179.586 270.089 179.839 269.889 180.026 269.64C180.213 269.382 180.306 269.093 180.306 268.773V268.653H178.119C177.319 268.653 176.919 268.951 176.919 269.547C176.919 269.84 177.03 270.067 177.253 270.227C177.475 270.387 177.777 270.467 178.159 270.467ZM188.095 272.16C187.277 272.16 186.579 271.987 186.001 271.64C185.433 271.293 185.001 270.809 184.708 270.187C184.415 269.556 184.268 268.827 184.268 268C184.268 267.164 184.41 266.436 184.695 265.813C184.979 265.182 185.393 264.698 185.935 264.36C186.486 264.013 187.144 263.84 187.908 263.84C188.495 263.84 188.997 263.951 189.415 264.173C189.841 264.387 190.17 264.693 190.401 265.093H190.455V260.8H192.668V269.813H193.761V272H191.521V270.693H190.961C190.677 271.156 190.295 271.516 189.815 271.773C189.344 272.031 188.77 272.16 188.095 272.16ZM188.508 270.24C189.104 270.24 189.575 270.076 189.921 269.747C190.277 269.409 190.455 268.947 190.455 268.36V267.64C190.455 267.053 190.277 266.596 189.921 266.267C189.575 265.929 189.104 265.76 188.508 265.76C187.833 265.76 187.326 265.96 186.988 266.36C186.65 266.76 186.481 267.307 186.481 268C186.481 268.693 186.65 269.24 186.988 269.64C187.326 270.04 187.833 270.24 188.508 270.24ZM198.392 272.16C197.574 272.16 196.876 271.987 196.298 271.64C195.729 271.293 195.298 270.809 195.005 270.187C194.712 269.556 194.565 268.827 194.565 268C194.565 267.164 194.707 266.436 194.992 265.813C195.276 265.182 195.689 264.698 196.232 264.36C196.783 264.013 197.441 263.84 198.205 263.84C198.792 263.84 199.294 263.951 199.712 264.173C200.138 264.387 200.467 264.693 200.698 265.093H200.752V260.8H202.965V269.813H204.058V272H201.818V270.693H201.258C200.974 271.156 200.592 271.516 200.112 271.773C199.641 272.031 199.067 272.16 198.392 272.16ZM198.805 270.24C199.401 270.24 199.872 270.076 200.218 269.747C200.574 269.409 200.752 268.947 200.752 268.36V267.64C200.752 267.053 200.574 266.596 200.218 266.267C199.872 265.929 199.401 265.76 198.805 265.76C198.129 265.76 197.623 265.96 197.285 266.36C196.947 266.76 196.778 267.307 196.778 268C196.778 268.693 196.947 269.24 197.285 269.64C197.623 270.04 198.129 270.24 198.805 270.24ZM209.35 275.2V273.427H211.11L211.736 271.933L208.283 264H210.63L212.87 269.387H212.923L215.11 264H217.376L213.95 272L213.296 273.547C213.074 274.071 212.816 274.476 212.523 274.76C212.23 275.053 211.781 275.2 211.176 275.2H209.35ZM221.934 272.16C221.063 272.16 220.303 271.991 219.654 271.653C219.014 271.307 218.516 270.822 218.161 270.2C217.805 269.578 217.627 268.84 217.627 267.987C217.627 267.142 217.801 266.409 218.148 265.787C218.503 265.164 219.005 264.684 219.654 264.347C220.303 264.009 221.068 263.84 221.948 263.84C222.819 263.84 223.574 264.009 224.214 264.347C224.854 264.684 225.348 265.164 225.694 265.787C226.041 266.409 226.214 267.147 226.214 268C226.214 268.844 226.041 269.582 225.694 270.213C225.348 270.836 224.85 271.316 224.201 271.653C223.561 271.991 222.805 272.16 221.934 272.16ZM221.934 270.24C222.601 270.24 223.112 270.04 223.468 269.64C223.823 269.231 224.001 268.68 224.001 267.987C224.001 267.293 223.823 266.751 223.468 266.36C223.112 265.96 222.601 265.76 221.934 265.76C221.259 265.76 220.739 265.96 220.374 266.36C220.019 266.751 219.841 267.293 219.841 267.987C219.841 268.68 220.019 269.231 220.374 269.64C220.739 270.04 221.259 270.24 221.934 270.24ZM230.923 272.147C229.812 272.147 228.958 271.853 228.363 271.267C227.767 270.68 227.47 269.88 227.47 268.867V264H229.683V268.44C229.683 269.018 229.83 269.453 230.123 269.747C230.425 270.031 230.874 270.173 231.47 270.173C232.083 270.173 232.554 270.018 232.883 269.707C233.221 269.396 233.39 268.951 233.39 268.373V264H235.603V269.813H236.696V272H234.456V270.693H233.896C233.576 271.164 233.185 271.524 232.723 271.773C232.27 272.022 231.67 272.147 230.923 272.147ZM238.37 272V266.187H237.277V264H239.517V265.573H240.077C240.29 265.013 240.628 264.596 241.09 264.32C241.552 264.044 242.072 263.907 242.65 263.907H243.33V265.827H242.557C241.864 265.827 241.352 266.022 241.024 266.413C240.704 266.804 240.544 267.32 240.544 267.96V272H238.37ZM248.891 272V266.187H247.798V264H250.038V265.307H250.624C250.909 264.844 251.278 264.489 251.731 264.24C252.184 263.982 252.744 263.853 253.411 263.853C254.051 263.853 254.598 263.969 255.051 264.2C255.513 264.422 255.882 264.756 256.158 265.2H256.211C256.824 264.302 257.735 263.853 258.944 263.853C259.975 263.853 260.793 264.156 261.398 264.76C262.002 265.356 262.304 266.164 262.304 267.187V272H260.091V267.613C260.091 266.422 259.526 265.827 258.398 265.827C257.269 265.827 256.704 266.422 256.704 267.613V272H254.491V267.613C254.491 266.422 253.918 265.827 252.771 265.827C252.22 265.827 251.802 265.973 251.517 266.267C251.242 266.56 251.104 267.009 251.104 267.613V272H248.891ZM267.872 272.16C267.001 272.16 266.241 271.991 265.592 271.653C264.952 271.307 264.454 270.822 264.098 270.2C263.743 269.578 263.565 268.84 263.565 267.987C263.565 267.142 263.738 266.409 264.085 265.787C264.441 265.164 264.943 264.684 265.592 264.347C266.241 264.009 267.005 263.84 267.885 263.84C268.756 263.84 269.512 264.009 270.152 264.347C270.792 264.684 271.285 265.164 271.632 265.787C271.978 266.409 272.152 267.147 272.152 268C272.152 268.844 271.978 269.582 271.632 270.213C271.285 270.836 270.787 271.316 270.138 271.653C269.498 271.991 268.743 272.16 267.872 272.16ZM267.872 270.24C268.538 270.24 269.049 270.04 269.405 269.64C269.761 269.231 269.938 268.68 269.938 267.987C269.938 267.293 269.761 266.751 269.405 266.36C269.049 265.96 268.538 265.76 267.872 265.76C267.196 265.76 266.676 265.96 266.312 266.36C265.956 266.751 265.778 267.293 265.778 267.987C265.778 268.68 265.956 269.231 266.312 269.64C266.676 270.04 267.196 270.24 267.872 270.24ZM277.34 272.16C276.469 272.16 275.709 271.991 275.06 271.653C274.42 271.307 273.923 270.822 273.567 270.2C273.212 269.578 273.034 268.84 273.034 267.987C273.034 267.142 273.207 266.409 273.554 265.787C273.909 265.164 274.412 264.684 275.06 264.347C275.709 264.009 276.474 263.84 277.354 263.84C278.225 263.84 278.98 264.009 279.62 264.347C280.26 264.684 280.754 265.164 281.1 265.787C281.447 266.409 281.62 267.147 281.62 268C281.62 268.844 281.447 269.582 281.1 270.213C280.754 270.836 280.256 271.316 279.607 271.653C278.967 271.991 278.212 272.16 277.34 272.16ZM277.34 270.24C278.007 270.24 278.518 270.04 278.874 269.64C279.229 269.231 279.407 268.68 279.407 267.987C279.407 267.293 279.229 266.751 278.874 266.36C278.518 265.96 278.007 265.76 277.34 265.76C276.665 265.76 276.145 265.96 275.78 266.36C275.425 266.751 275.247 267.293 275.247 267.987C275.247 268.68 275.425 269.231 275.78 269.64C276.145 270.04 276.665 270.24 277.34 270.24ZM286.329 272.16C285.511 272.16 284.814 271.987 284.236 271.64C283.667 271.293 283.236 270.809 282.942 270.187C282.649 269.556 282.502 268.827 282.502 268C282.502 267.164 282.645 266.436 282.929 265.813C283.214 265.182 283.627 264.698 284.169 264.36C284.72 264.013 285.378 263.84 286.142 263.84C286.729 263.84 287.231 263.951 287.649 264.173C288.076 264.387 288.405 264.693 288.636 265.093H288.689V260.8H290.903V269.813H291.996V272H289.756V270.693H289.196C288.911 271.156 288.529 271.516 288.049 271.773C287.578 272.031 287.005 272.16 286.329 272.16ZM286.743 270.24C287.338 270.24 287.809 270.076 288.156 269.747C288.511 269.409 288.689 268.947 288.689 268.36V267.64C288.689 267.053 288.511 266.596 288.156 266.267C287.809 265.929 287.338 265.76 286.743 265.76C286.067 265.76 285.56 265.96 285.223 266.36C284.885 266.76 284.716 267.307 284.716 268C284.716 268.693 284.885 269.24 285.223 269.64C285.56 270.04 286.067 270.24 286.743 270.24ZM297.807 272V265.733H296.381V264H297.834V262.573C297.834 261.969 297.994 261.524 298.314 261.24C298.634 260.947 299.083 260.8 299.661 260.8H301.954V262.533H299.994V264H301.794V265.733H300.021V272H297.807ZM306.778 272.16C305.907 272.16 305.147 271.991 304.498 271.653C303.858 271.307 303.36 270.822 303.005 270.2C302.649 269.578 302.471 268.84 302.471 267.987C302.471 267.142 302.645 266.409 302.991 265.787C303.347 265.164 303.849 264.684 304.498 264.347C305.147 264.009 305.911 263.84 306.791 263.84C307.662 263.84 308.418 264.009 309.058 264.347C309.698 264.684 310.191 265.164 310.538 265.787C310.885 266.409 311.058 267.147 311.058 268C311.058 268.844 310.885 269.582 310.538 270.213C310.191 270.836 309.693 271.316 309.045 271.653C308.405 271.991 307.649 272.16 306.778 272.16ZM306.778 270.24C307.445 270.24 307.956 270.04 308.311 269.64C308.667 269.231 308.845 268.68 308.845 267.987C308.845 267.293 308.667 266.751 308.311 266.36C307.956 265.96 307.445 265.76 306.778 265.76C306.102 265.76 305.582 265.96 305.218 266.36C304.862 266.751 304.685 267.293 304.685 267.987C304.685 268.68 304.862 269.231 305.218 269.64C305.582 270.04 306.102 270.24 306.778 270.24ZM313.073 272V266.187H311.98V264H314.22V265.573H314.78C314.993 265.013 315.331 264.596 315.793 264.32C316.256 264.044 316.776 263.907 317.353 263.907H318.033V265.827H317.26C316.567 265.827 316.056 266.022 315.727 266.413C315.407 266.804 315.247 267.32 315.247 267.96V272H313.073ZM325.554 272C324.985 272 324.541 271.858 324.221 271.573C323.91 271.28 323.754 270.836 323.754 270.24V265.733H322.381V264H323.781V261.6H325.941V264H327.794V265.733H325.967V270.267H327.981V272H325.554ZM329.164 272V260.8H331.377V265.147H331.43C331.688 264.72 332.035 264.4 332.47 264.187C332.906 263.964 333.421 263.853 334.017 263.853C335.021 263.853 335.817 264.16 336.404 264.773C336.999 265.378 337.297 266.191 337.297 267.213V272H335.084V267.627C335.084 267.04 334.924 266.596 334.604 266.293C334.292 265.982 333.835 265.827 333.23 265.827C332.626 265.827 332.164 265.982 331.844 266.293C331.532 266.596 331.377 267.04 331.377 267.627V272H329.164ZM342.803 272.16C341.94 272.16 341.189 271.991 340.549 271.653C339.909 271.307 339.416 270.822 339.069 270.2C338.723 269.569 338.549 268.827 338.549 267.973C338.549 267.12 338.718 266.387 339.056 265.773C339.394 265.151 339.874 264.676 340.496 264.347C341.127 264.009 341.869 263.84 342.723 263.84C343.558 263.84 344.274 264 344.869 264.32C345.474 264.64 345.936 265.098 346.256 265.693C346.576 266.289 346.736 267 346.736 267.827V268.573H340.669C340.758 269.169 340.985 269.622 341.349 269.933C341.714 270.244 342.194 270.4 342.789 270.4C343.26 270.4 343.634 270.32 343.909 270.16C344.185 270 344.38 269.756 344.496 269.427H346.709C346.532 270.28 346.1 270.951 345.416 271.44C344.732 271.92 343.86 272.16 342.803 272.16ZM340.723 267.107H344.616C344.545 266.6 344.349 266.222 344.029 265.973C343.709 265.716 343.278 265.587 342.736 265.587C342.194 265.587 341.749 265.716 341.403 265.973C341.065 266.231 340.838 266.609 340.723 267.107ZM355.22 272.16C354.402 272.16 353.704 271.987 353.126 271.64C352.558 271.293 352.126 270.809 351.833 270.187C351.54 269.556 351.393 268.827 351.393 268C351.393 267.164 351.535 266.436 351.82 265.813C352.104 265.182 352.518 264.698 353.06 264.36C353.611 264.013 354.269 263.84 355.033 263.84C355.62 263.84 356.122 263.951 356.54 264.173C356.966 264.387 357.295 264.693 357.526 265.093H357.58V260.8H359.793V269.813H360.886V272H358.646V270.693H358.086C357.802 271.156 357.42 271.516 356.94 271.773C356.469 272.031 355.895 272.16 355.22 272.16ZM355.633 270.24C356.229 270.24 356.7 270.076 357.046 269.747C357.402 269.409 357.58 268.947 357.58 268.36V267.64C357.58 267.053 357.402 266.596 357.046 266.267C356.7 265.929 356.229 265.76 355.633 265.76C354.958 265.76 354.451 265.96 354.113 266.36C353.775 266.76 353.606 267.307 353.606 268C353.606 268.693 353.775 269.24 354.113 269.64C354.451 270.04 354.958 270.24 355.633 270.24ZM364.717 272.147C363.774 272.147 363.037 271.92 362.503 271.467C361.97 271.004 361.703 270.4 361.703 269.653C361.703 268.862 361.979 268.253 362.53 267.827C363.081 267.4 363.872 267.187 364.903 267.187H367.197V266.88C367.197 266.018 366.681 265.587 365.65 265.587C364.752 265.587 364.21 265.898 364.023 266.52H361.823C362.001 265.64 362.414 264.973 363.063 264.52C363.712 264.067 364.574 263.84 365.65 263.84C366.841 263.84 367.748 264.107 368.37 264.64C369.001 265.173 369.317 265.951 369.317 266.973V269.813H370.357V272H368.117V270.693H367.557C367.281 271.156 366.912 271.516 366.45 271.773C365.988 272.022 365.41 272.147 364.717 272.147ZM365.05 270.467C365.468 270.467 365.837 270.391 366.157 270.24C366.477 270.089 366.73 269.889 366.917 269.64C367.103 269.382 367.197 269.093 367.197 268.773V268.653H365.01C364.21 268.653 363.81 268.951 363.81 269.547C363.81 269.84 363.921 270.067 364.143 270.227C364.366 270.387 364.668 270.467 365.05 270.467ZM371.459 275.2V273.427H373.219L373.846 271.933L370.392 264H372.739L374.979 269.387H375.033L377.219 264H379.486L376.059 272L375.406 273.547C375.184 274.071 374.926 274.476 374.633 274.76C374.339 275.053 373.89 275.2 373.286 275.2H371.459Z" fill="white" fill-opacity="0.5"/>
<path d="M59.8667 55.2312C58.7422 55.2312 57.7828 54.9929 56.9883 54.5162C56.2061 54.0396 55.6133 53.3735 55.21 52.5179C54.8067 51.6501 54.605 50.6479 54.605 49.5112C54.605 48.3623 54.8006 47.3601 55.1917 46.5046C55.5828 45.6368 56.1511 44.9707 56.8967 44.5062C57.6544 44.0296 58.5589 43.7912 59.61 43.7912C60.4167 43.7912 61.1072 43.944 61.6817 44.2496C62.2683 44.5429 62.7206 44.9646 63.0383 45.5146H63.1117V39.6112H66.155V52.0046H67.6583V55.0112H64.5783V53.2146H63.8083C63.4172 53.8501 62.8917 54.3451 62.2317 54.6996C61.5839 55.054 60.7956 55.2312 59.8667 55.2312ZM60.435 52.5912C61.2539 52.5912 61.9017 52.3651 62.3783 51.9129C62.8672 51.4485 63.1117 50.8129 63.1117 50.0062V49.0162C63.1117 48.2096 62.8672 47.5801 62.3783 47.1279C61.9017 46.6635 61.2539 46.4312 60.435 46.4312C59.5061 46.4312 58.8094 46.7062 58.345 47.2562C57.8806 47.8062 57.6483 48.5579 57.6483 49.5112C57.6483 50.4646 57.8806 51.2162 58.345 51.7662C58.8094 52.3162 59.5061 52.5912 60.435 52.5912ZM72.9249 55.2129C71.6293 55.2129 70.6149 54.9012 69.8815 54.2779C69.1482 53.6423 68.7815 52.8112 68.7815 51.7846C68.7815 50.6968 69.1604 49.8596 69.9182 49.2729C70.676 48.6862 71.7638 48.3929 73.1815 48.3929H76.3349V47.9712C76.3349 46.7857 75.626 46.1929 74.2082 46.1929C72.9738 46.1929 72.2282 46.6207 71.9715 47.4762H68.9465C69.191 46.2662 69.7593 45.3496 70.6515 44.7262C71.5438 44.1029 72.7293 43.7912 74.2082 43.7912C75.846 43.7912 77.0926 44.1579 77.9482 44.8912C78.816 45.6246 79.2499 46.694 79.2499 48.0996V52.0046H80.6799V55.0112H77.5999V53.2146H76.8299C76.451 53.8501 75.9438 54.3451 75.3082 54.6996C74.6726 55.0418 73.8782 55.2129 72.9249 55.2129ZM73.3832 52.9029C73.9576 52.9029 74.4649 52.799 74.9049 52.5912C75.3449 52.3835 75.6932 52.1085 75.9499 51.7662C76.2065 51.4118 76.3349 51.0146 76.3349 50.5746V50.4096H73.3282C72.2282 50.4096 71.6782 50.819 71.6782 51.6379C71.6782 52.0412 71.831 52.3529 72.1365 52.5729C72.4421 52.7929 72.8576 52.9029 73.3832 52.9029ZM82.5931 55.0112V44.0112H85.6365V55.0112H82.5931ZM84.1148 42.9296C83.6503 42.9296 83.2531 42.7707 82.9231 42.4529C82.6053 42.1229 82.4465 41.7257 82.4465 41.2612C82.4465 40.7968 82.6053 40.4057 82.9231 40.0879C83.2531 39.7579 83.6503 39.5929 84.1148 39.5929C84.5792 39.5929 84.9703 39.7579 85.2881 40.0879C85.6181 40.4057 85.7831 40.7968 85.7831 41.2612C85.7831 41.7257 85.6181 42.1229 85.2881 42.4529C84.9703 42.7707 84.5792 42.9296 84.1148 42.9296ZM88.1576 55.0112V39.6112H91.2009V55.0112H88.1576ZM94.0337 59.4112V56.9729H96.4537L97.3154 54.9196L92.567 44.0112H95.7937L98.8737 51.4179H98.947L101.954 44.0112H105.07L100.359 55.0112L99.4604 57.1379C99.1548 57.859 98.8004 58.4151 98.397 58.8062C97.9937 59.2096 97.3765 59.4112 96.5454 59.4112H94.0337ZM112.538 55.0112V47.0179H111.035V44.0112H114.115V46.1746H114.885C115.178 45.4046 115.643 44.8301 116.278 44.4512C116.914 44.0723 117.629 43.8829 118.423 43.8829H119.358V46.5229H118.295C117.342 46.5229 116.639 46.7918 116.187 47.3296C115.747 47.8673 115.527 48.5762 115.527 49.4562V55.0112H112.538ZM125.701 55.2312C124.516 55.2312 123.483 54.999 122.603 54.5346C121.723 54.0579 121.045 53.3918 120.568 52.5362C120.091 51.6685 119.853 50.6479 119.853 49.4746C119.853 48.3012 120.085 47.2929 120.55 46.4496C121.014 45.594 121.674 44.9401 122.53 44.4879C123.397 44.0235 124.418 43.7912 125.591 43.7912C126.74 43.7912 127.724 44.0112 128.543 44.4512C129.374 44.8912 130.01 45.5207 130.45 46.3396C130.89 47.1585 131.11 48.1362 131.11 49.2729V50.2996H122.768C122.89 51.1185 123.202 51.7418 123.703 52.1696C124.204 52.5973 124.864 52.8112 125.683 52.8112C126.331 52.8112 126.844 52.7012 127.223 52.4812C127.602 52.2612 127.871 51.9251 128.03 51.4729H131.073C130.829 52.6462 130.236 53.569 129.295 54.2412C128.354 54.9012 127.156 55.2312 125.701 55.2312ZM122.841 48.2829H128.195C128.097 47.5862 127.828 47.0668 127.388 46.7246C126.948 46.3701 126.355 46.1929 125.61 46.1929C124.864 46.1929 124.253 46.3701 123.776 46.7246C123.312 47.079 123 47.5985 122.841 48.2829ZM133.707 55.0112V47.0179H132.204V44.0112H135.284V45.8079H136.091C136.482 45.1723 136.989 44.6835 137.612 44.3412C138.236 43.9868 139.006 43.8096 139.922 43.8096C140.802 43.8096 141.554 43.9685 142.177 44.2862C142.813 44.5918 143.32 45.0501 143.699 45.6612H143.772C144.616 44.4268 145.868 43.8096 147.531 43.8096C148.948 43.8096 150.073 44.2251 150.904 45.0562C151.735 45.8751 152.151 46.9873 152.151 48.3929V55.0112H149.107V48.9796C149.107 47.3418 148.331 46.5229 146.779 46.5229C145.227 46.5229 144.451 47.3418 144.451 48.9796V55.0112H141.407V48.9796C141.407 47.3418 140.619 46.5229 139.042 46.5229C138.285 46.5229 137.71 46.7246 137.319 47.1279C136.94 47.5312 136.751 48.1485 136.751 48.9796V55.0112H133.707ZM154.544 55.0112V44.0112H157.588V55.0112H154.544ZM156.066 42.9296C155.602 42.9296 155.204 42.7707 154.874 42.4529C154.557 42.1229 154.398 41.7257 154.398 41.2612C154.398 40.7968 154.557 40.4057 154.874 40.0879C155.204 39.7579 155.602 39.5929 156.066 39.5929C156.53 39.5929 156.922 39.7579 157.239 40.0879C157.569 40.4057 157.734 40.7968 157.734 41.2612C157.734 41.7257 157.569 42.1229 157.239 42.4529C156.922 42.7707 156.53 42.9296 156.066 42.9296ZM160.842 55.0112V47.0179H159.339V44.0112H162.419V45.8079H163.189C163.617 45.1723 164.154 44.6835 164.802 44.3412C165.45 43.9868 166.257 43.8096 167.222 43.8096C168.75 43.8096 169.929 44.2312 170.76 45.0746C171.604 45.9057 172.025 47.024 172.025 48.4296V55.0112H168.982V48.9979C168.982 48.1912 168.762 47.5801 168.322 47.1646C167.894 46.7368 167.265 46.5229 166.434 46.5229C165.603 46.5229 164.967 46.7368 164.527 47.1646C164.099 47.5801 163.885 48.1912 163.885 48.9979V55.0112H160.842ZM179.019 55.2312C177.895 55.2312 176.935 54.9929 176.141 54.5162C175.358 54.0396 174.766 53.3735 174.362 52.5179C173.959 51.6501 173.757 50.6479 173.757 49.5112C173.757 48.3623 173.953 47.3601 174.344 46.5046C174.735 45.6368 175.303 44.9707 176.049 44.5062C176.807 44.0296 177.711 43.7912 178.762 43.7912C179.569 43.7912 180.26 43.944 180.834 44.2496C181.421 44.5429 181.873 44.9646 182.191 45.5146H182.264V39.6112H185.307V52.0046H186.811V55.0112H183.731V53.2146H182.961C182.57 53.8501 182.044 54.3451 181.384 54.6996C180.736 55.054 179.948 55.2312 179.019 55.2312ZM179.587 52.5912C180.406 52.5912 181.054 52.3651 181.531 51.9129C182.02 51.4485 182.264 50.8129 182.264 50.0062V49.0162C182.264 48.2096 182.02 47.5801 181.531 47.1279C181.054 46.6635 180.406 46.4312 179.587 46.4312C178.658 46.4312 177.962 46.7062 177.497 47.2562C177.033 47.8062 176.801 48.5579 176.801 49.5112C176.801 50.4646 177.033 51.2162 177.497 51.7662C177.962 52.3162 178.658 52.5912 179.587 52.5912ZM193.764 55.2312C192.578 55.2312 191.546 54.999 190.666 54.5346C189.786 54.0579 189.107 53.3918 188.631 52.5362C188.154 51.6685 187.916 50.6479 187.916 49.4746C187.916 48.3012 188.148 47.2929 188.612 46.4496C189.077 45.594 189.737 44.9401 190.592 44.4879C191.46 44.0235 192.481 43.7912 193.654 43.7912C194.803 43.7912 195.787 44.0112 196.606 44.4512C197.437 44.8912 198.072 45.5207 198.512 46.3396C198.952 47.1585 199.172 48.1362 199.172 49.2729V50.2996H190.831C190.953 51.1185 191.264 51.7418 191.766 52.1696C192.267 52.5973 192.927 52.8112 193.746 52.8112C194.393 52.8112 194.907 52.7012 195.286 52.4812C195.664 52.2612 195.933 51.9251 196.092 51.4729H199.136C198.891 52.6462 198.298 53.569 197.357 54.2412C196.416 54.9012 195.218 55.2312 193.764 55.2312ZM190.904 48.2829H196.257C196.159 47.5862 195.891 47.0668 195.451 46.7246C195.011 46.3701 194.418 46.1929 193.672 46.1929C192.927 46.1929 192.316 46.3701 191.839 46.7246C191.374 47.079 191.063 47.5985 190.904 48.2829ZM201.935 55.0112V47.0179H200.431V44.0112H203.511V46.1746H204.281C204.575 45.4046 205.039 44.8301 205.675 44.4512C206.31 44.0723 207.025 43.8829 207.82 43.8829H208.755V46.5229H207.691C206.738 46.5229 206.035 46.7918 205.583 47.3296C205.143 47.8673 204.923 48.5762 204.923 49.4562V55.0112H201.935Z" fill="white"/>
<rect x="205" y="160" width="8" height="31" rx="4" fill="white"/>
<rect x="155" y="170.299" width="8" height="31" rx="4" transform="rotate(-32 155 170.299)" fill="white"/>
<rect x="280" y="66.0112" width="37" height="70" rx="18.5" transform="rotate(-90 280 66.0112)" fill="#363636"/>
<rect x="316" y="62.0112" width="29" height="29" rx="14.5" transform="rotate(-90 316 62.0112)" fill="white"/>
<rect x="256.846" y="165" width="8" height="31" rx="4" transform="rotate(32 256.846 165)" fill="white"/>
<rect x="314.235" width="4" height="16" rx="2" transform="rotate(0.328606 314.235 0)" fill="white"/>
<rect x="288.025" y="5.25366" width="4.19771" height="16.2661" rx="2.09885" transform="rotate(-31.6714 288.025 5.25366)" fill="white"/>
<rect x="340.839" y="2.77612" width="4.19771" height="16.2661" rx="2.09885" transform="rotate(32.3286 340.839 2.77612)" fill="white"/>
<path d="M211.5 90C211.5 88.6193 210.381 87.5 209 87.5C207.619 87.5 206.5 88.6193 206.5 90H209H211.5ZM207.232 124.768C208.209 125.744 209.791 125.744 210.768 124.768L226.678 108.858C227.654 107.882 227.654 106.299 226.678 105.322C225.701 104.346 224.118 104.346 223.142 105.322L209 119.464L194.858 105.322C193.882 104.346 192.299 104.346 191.322 105.322C190.346 106.299 190.346 107.882 191.322 108.858L207.232 124.768ZM209 90H206.5V123H209H211.5V90H209Z" fill="white"/>
<path d="M39.5032 237C38.3572 237 37.4313 237.922 37.4313 239.062V239.269C32.7048 240.223 29.1438 244.386 29.1438 249.375V250.774C29.1438 253.874 28.0819 256.884 26.1395 259.307L25.505 260.094C25.1748 260.5 25 261.002 25 261.524C25 262.788 26.0295 263.812 27.2985 263.812H51.7015C52.9705 263.812 54 262.788 54 261.524C54 261.002 53.8252 260.5 53.495 260.094L52.8605 259.307C50.9245 256.884 49.8627 253.874 49.8627 250.774V249.375C49.8627 244.386 46.3016 240.223 41.5751 239.269V239.062C41.5751 237.922 40.6493 237 39.5032 237ZM35.4889 266.906C35.9486 268.685 37.5738 270 39.5032 270C41.4327 270 43.0578 268.685 43.5175 266.906H35.4889Z" fill="white"/>
</svg>
